<?xml version="1.0" standalone="no"?>
<!DOCTYPE svg PUBLIC "-//W3C//DTD SVG 20010904//EN"
 "http://www.w3.org/TR/2001/REC-SVG-20010904/DTD/svg10.dtd">
<svg version="1.0" xmlns="http://www.w3.org/2000/svg"
 width="800.000000pt" height="800.000000pt" viewBox="0 0 800.000000 800.000000"
 preserveAspectRatio="xMidYMid meet">
<metadata>
Created by potrace 1.11, written by Peter Selinger 2001-2013
</metadata>
<g transform="translate(0.000000,800.000000) scale(0.100000,-0.100000)"
fill="#000000" stroke="none">
<path d="M3397 7323 c-30 -24 -36 -34 -37 -66 0 -37 -1 -38 -28 -33 -16 4 -50
-1 -84 -13 -63 -22 -65 -21 -156 42 -56 39 -105 53 -150 44 -15 -3 -70 -21
-122 -40 -94 -34 -126 -56 -177 -123 -17 -23 -24 -27 -34 -16 -25 23 -75 13
-135 -27 -60 -40 -154 -139 -154 -163 0 -7 -6 -20 -13 -29 -11 -15 -16 -14
-47 12 -41 34 -66 39 -50 10 15 -29 12 -60 -11 -126 -16 -46 -19 -71 -14 -115
7 -60 -8 -89 -40 -77 -8 4 -16 3 -19 -1 -9 -14 13 -37 46 -48 24 -8 34 -18 36
-35 10 -80 81 -139 167 -139 20 0 50 -7 67 -16 40 -21 157 -15 210 11 37 18
38 18 92 -9 44 -22 68 -28 128 -28 60 0 79 -5 110 -25 38 -26 105 -40 134 -29
14 5 13 10 -10 31 -30 28 -34 64 -10 100 14 21 24 25 65 25 60 0 117 22 144
56 13 15 41 30 79 39 68 18 151 57 183 87 19 18 26 19 54 9 50 -17 102 -13
177 14 91 33 110 32 172 -11 55 -38 155 -86 205 -98 17 -4 64 -11 105 -15 63
-7 84 -14 135 -47 l60 -39 115 0 c98 0 122 3 164 23 l49 22 30 -35 c16 -20 55
-49 86 -64 37 -19 65 -42 81 -67 42 -66 238 -184 304 -184 10 0 38 -21 64 -47
27 -28 80 -65 124 -86 89 -45 110 -76 90 -131 -17 -47 -15 -76 9 -121 16 -29
20 -50 16 -83 -7 -64 8 -103 48 -129 36 -23 51 -17 40 17 -9 30 22 78 62 98
57 26 89 82 113 193 24 111 22 256 -3 306 -26 49 -90 98 -165 127 -39 15 -76
34 -83 42 -7 9 -52 35 -99 59 -79 40 -87 47 -98 82 -12 39 -56 92 -68 80 -4
-3 -1 -20 4 -37 12 -34 7 -60 -13 -60 -6 0 -30 22 -52 48 -42 49 -89 72 -149
72 -23 0 -43 15 -99 74 -56 59 -82 78 -128 95 -32 11 -74 21 -94 21 -23 0 -68
16 -118 41 -45 22 -104 46 -130 53 -44 11 -50 16 -58 47 -5 18 -15 41 -23 50
-8 8 -14 23 -14 33 0 32 -35 14 -36 -19 -1 -17 -2 -35 -3 -42 -2 -17 -67 -36
-100 -28 -16 3 -36 13 -43 22 -23 28 -113 81 -158 93 -25 7 -57 23 -73 36 -29
24 -85 44 -127 44 -50 0 -180 51 -198 77 -58 87 -124 123 -226 123 -41 0 -78
5 -81 10 -4 6 1 22 9 35 23 35 0 33 -47 -2z"/>
<path d="M4548 6335 c-3 -6 -8 -35 -12 -65 -8 -63 8 -98 39 -86 15 5 17 14 12
51 -8 53 -31 113 -39 100z"/>
<path d="M5105 6108 c-47 -24 -95 -62 -95 -73 0 -21 29 -26 53 -10 30 19 79
83 69 89 -4 2 -16 0 -27 -6z"/>
<path d="M4127 5976 c-7 -18 11 -36 29 -29 21 8 17 43 -5 43 -10 0 -21 -6 -24
-14z"/>
<path d="M2109 5922 c29 -41 162 -151 191 -158 23 -5 39 -18 33 -28 -3 -6 -3
-8 2 -4 8 8 65 -18 65 -30 0 -4 22 -17 50 -30 29 -13 56 -35 67 -52 9 -17 24
-30 33 -30 9 0 26 -9 37 -20 12 -10 33 -22 47 -26 19 -5 25 -11 21 -24 -4 -13
4 -20 35 -29 22 -6 40 -16 40 -21 0 -6 6 -10 13 -10 21 0 51 -37 37 -45 -18
-11 -142 -17 -136 -6 3 5 15 7 26 4 20 -5 50 17 50 36 0 14 -6 14 -29 1 -13
-7 -29 -4 -56 10 -34 18 -41 18 -55 5 -19 -18 -46 -20 -55 -4 -4 6 -14 8 -22
5 -10 -4 -13 -2 -10 7 10 26 -52 64 -72 44 -8 -8 -11 -7 -11 5 0 9 5 18 11 20
5 2 7 11 4 21 -9 21 -53 13 -77 -15 -16 -18 -17 -18 -29 23 -10 32 -20 45 -46
55 -18 8 -33 18 -33 23 0 5 -7 12 -16 15 -8 3 -13 2 -10 -3 3 -5 -3 -11 -14
-14 -15 -4 -20 0 -20 14 0 13 -7 19 -21 19 -17 0 -20 -5 -17 -25 3 -13 1 -22
-3 -19 -5 3 -9 -4 -9 -15 0 -12 -7 -21 -15 -21 -8 0 -15 5 -15 10 0 16 -26 12
-41 -7 -12 -14 -12 -16 1 -9 8 4 5 -1 -7 -10 -13 -9 -23 -25 -23 -35 0 -10 -5
-21 -10 -24 -6 -4 -8 -11 -5 -16 4 -5 1 -9 -5 -9 -11 0 -54 -89 -46 -97 2 -2
-7 -16 -21 -31 -15 -17 -23 -35 -20 -49 2 -13 -2 -24 -11 -28 -8 -3 -11 -12
-8 -20 3 -9 0 -15 -8 -15 -15 0 -36 -50 -36 -85 0 -13 -7 -28 -15 -35 -8 -7
-15 -23 -15 -37 0 -13 -7 -38 -16 -55 -9 -17 -17 -46 -19 -66 -2 -19 -9 -38
-15 -42 -6 -4 -11 -10 -11 -14 0 -3 -1 -11 -3 -18 -5 -17 -35 -137 -41 -164
-3 -12 -12 -38 -20 -58 -8 -20 -12 -36 -8 -35 24 4 24 -4 -3 -32 -19 -21 -25
-33 -16 -36 17 -7 15 -43 -5 -65 -9 -10 -17 -37 -18 -61 0 -23 -4 -48 -9 -55
-4 -6 -3 -19 2 -28 10 -18 4 -61 -9 -70 -15 -9 -10 -62 7 -79 11 -10 13 -20 7
-26 -5 -5 -8 -30 -6 -54 4 -37 1 -45 -12 -45 -10 0 -13 -5 -9 -12 4 -6 7 -90
6 -186 -1 -160 -8 -212 -26 -183 -4 6 -12 11 -17 11 -13 0 -8 -76 15 -255 9
-71 14 -141 11 -156 -5 -20 2 -44 24 -86 17 -32 31 -68 31 -80 0 -12 4 -24 8
-27 5 -3 14 -31 21 -63 7 -32 19 -70 27 -85 8 -14 14 -40 14 -57 0 -17 4 -31
9 -31 5 0 20 -21 33 -47 89 -184 209 -328 487 -582 220 -200 279 -322 321
-661 5 -41 14 -99 20 -129 16 -84 13 -188 -6 -199 -9 -5 -17 -26 -20 -53 -2
-24 -6 -54 -9 -66 -9 -39 49 -91 120 -108 68 -15 152 -10 177 12 26 23 47 94
35 120 -7 17 -5 28 12 49 11 15 21 35 21 44 0 10 7 37 16 61 18 53 39 161 54
289 40 334 55 396 98 419 24 13 71 14 89 3 25 -16 33 -105 30 -354 -2 -281 1
-299 74 -473 30 -70 34 -91 34 -164 0 -85 0 -85 33 -107 64 -43 232 -42 301 3
22 14 23 20 18 73 -3 32 -13 69 -22 84 -16 23 -17 46 -12 194 6 199 25 264
147 511 27 54 25 70 -29 224 -64 182 -106 413 -71 392 6 -3 10 -2 10 4 0 5 -8
14 -17 19 -12 7 -19 30 -24 78 -5 38 -12 99 -17 135 -8 67 -2 201 19 372 9 81
16 104 38 130 33 41 44 48 111 69 38 12 88 18 161 18 104 0 216 14 232 29 5 5
-26 14 -68 20 -43 6 -81 14 -86 17 -5 3 -1 16 7 30 17 25 16 103 -2 161 -5 19
-1 25 25 36 l32 14 -53 16 c-55 17 -199 52 -278 67 -25 5 -67 16 -95 25 -54
18 -142 36 -190 40 -165 13 -474 99 -618 171 -48 25 -71 41 -208 146 -70 54
-130 115 -148 151 -8 15 -21 27 -28 27 -22 0 -73 56 -73 79 0 13 5 19 14 15
11 -4 17 10 26 53 15 74 60 120 76 78 9 -21 19 -19 31 8 9 19 17 23 42 19 45
-6 81 -56 81 -111 0 -34 8 -53 38 -91 20 -27 49 -53 65 -59 15 -5 27 -14 27
-19 0 -7 28 -21 158 -78 18 -8 41 -14 51 -14 10 0 44 -13 77 -29 90 -45 241
-72 408 -73 153 0 230 8 244 26 9 10 27 84 24 97 -1 4 6 6 15 5 12 -1 17 8 18
31 1 34 15 56 22 36 6 -17 33 -17 33 0 0 7 -5 18 -12 25 -9 9 -9 12 0 12 7 0
12 8 12 18 0 10 14 26 31 36 17 10 50 37 72 60 23 24 50 45 60 49 49 18 -24
43 -148 51 -68 4 -159 18 -253 40 -13 3 -20 1 -17 -5 11 -17 -15 -9 -35 11
-24 24 -40 26 -40 5 0 -17 -16 -20 -25 -4 -4 5 -19 15 -33 21 l-27 10 26 10
c33 11 49 46 49 109 0 42 -5 55 -33 85 -32 35 -36 37 -100 37 -37 0 -67 3 -67
7 0 10 81 53 180 95 174 74 258 118 270 140 7 13 22 28 34 34 11 7 34 33 49
59 16 26 44 58 63 71 l34 24 -22 16 c-14 9 -46 17 -78 18 -30 1 -61 2 -67 2
-7 1 -22 10 -33 21 -22 22 -40 19 -40 -7 0 -21 -34 -15 -215 41 -166 51 -215
69 -355 132 -157 69 -430 184 -440 184 -6 0 -49 22 -97 48 -49 27 -128 70
-178 97 -49 26 -150 88 -223 137 -102 68 -129 82 -113 60z m96 -312 c3 -5 2
-10 -4 -10 -5 0 -13 5 -16 10 -3 6 -2 10 4 10 5 0 13 -4 16 -10z m232 -132
c-3 -8 -6 -5 -6 6 -1 11 2 17 5 13 3 -3 4 -12 1 -19z m126 -75 c-7 -2 -19 -2
-25 0 -7 3 -2 5 12 5 14 0 19 -2 13 -5z m307 -33 c11 -7 4 -10 -27 -10 -24 0
-43 5 -43 10 0 13 50 13 70 0z m-611 -437 c0 -35 -1 -36 -10 -14 -5 14 -7 31
-5 38 10 24 16 13 15 -24z m41 -75 c0 6 4 12 9 12 6 0 9 -9 8 -19 0 -11 -6
-17 -12 -13 -5 3 -3 -5 6 -18 46 -73 58 -98 52 -104 -4 -4 3 -9 15 -13 26 -6
26 -7 10 -33 -10 -16 -8 -22 13 -43 14 -13 29 -36 33 -51 5 -21 10 -25 20 -17
9 8 13 7 14 -4 1 -8 3 -22 4 -30 1 -8 5 -12 10 -9 13 8 68 -19 68 -34 0 -15
-40 -6 -53 12 -5 6 -6 2 -2 -10 7 -28 -18 -54 -52 -54 -20 0 -24 4 -20 19 5
21 -24 51 -49 51 -8 0 -14 6 -12 13 6 30 -13 87 -30 87 -11 0 -13 3 -6 8 6 4
10 16 8 26 -1 11 -4 36 -6 55 -1 20 -10 42 -19 49 -10 6 -20 27 -24 45 -4 17
-13 42 -21 54 -8 12 -11 29 -7 39 5 14 8 13 24 -7 10 -13 19 -18 19 -11z m125
-228 c3 -5 1 -10 -4 -10 -6 0 -11 5 -11 10 0 6 2 10 4 10 3 0 8 -4 11 -10z
m-140 -99 c3 -5 1 -12 -5 -16 -5 -3 -10 1 -10 9 0 18 6 21 15 7z m412 -63 c-3
-7 -5 -2 -5 12 0 14 2 19 5 13 2 -7 2 -19 0 -25z m103 -228 c0 -5 -4 -10 -10
-10 -5 0 -10 5 -10 10 0 6 5 10 10 10 6 0 10 -4 10 -10z m905 -670 c3 -5 -1
-10 -10 -10 -9 0 -13 -4 -10 -10 3 -5 -1 -10 -9 -10 -21 0 -31 21 -15 31 19
12 36 11 44 -1z m115 -64 c0 -2 -7 -7 -16 -10 -8 -3 -12 -2 -9 4 6 10 25 14
25 6z m177 -2 c-3 -3 -12 -4 -19 -1 -8 3 -5 6 6 6 11 1 17 -2 13 -5z"/>
<path d="M5100 5849 c0 -5 5 -7 10 -4 6 3 10 8 10 11 0 2 -4 4 -10 4 -5 0 -10
-5 -10 -11z"/>
<path d="M4460 5624 c0 -8 5 -12 10 -9 6 4 8 11 5 16 -9 14 -15 11 -15 -7z"/>
<path d="M5282 5618 c2 -12 10 -23 18 -23 22 0 19 39 -3 43 -15 3 -18 -1 -15
-20z"/>
<path d="M5090 5525 c0 -3 11 -32 24 -65 14 -33 23 -60 21 -60 -3 0 0 -11 5
-25 9 -25 9 -25 -38 -24 -68 0 -228 33 -297 59 -70 27 -75 19 -7 -11 26 -11
55 -25 64 -30 23 -12 135 -44 283 -81 66 -16 129 -33 140 -38 84 -35 185 -52
185 -30 0 10 -48 41 -115 75 -22 11 -89 68 -150 127 -110 108 -115 113 -115
103z"/>
<path d="M4298 5481 c-38 -45 -48 -68 -44 -107 2 -21 7 -46 10 -55 13 -32 101
-56 161 -45 52 10 42 26 -16 26 -74 0 -59 23 20 31 63 6 81 17 81 51 0 24 -17
31 -23 9 -7 -28 -104 -24 -137 7 -13 12 -27 22 -32 22 -13 0 -9 23 7 44 12 16
18 17 27 8 16 -16 28 -15 28 2 0 12 -28 26 -55 26 -6 0 -18 -9 -27 -19z"/>
<path d="M4390 5445 c0 -17 2 -18 24 -9 23 9 20 24 -4 24 -11 0 -20 -7 -20
-15z"/>
<path d="M4670 5456 c0 -2 7 -6 15 -10 8 -3 15 -1 15 4 0 6 -7 10 -15 10 -8 0
-15 -2 -15 -4z"/>
<path d="M4718 5433 c7 -3 16 -2 19 1 4 3 -2 6 -13 5 -11 0 -14 -3 -6 -6z"/>
<path d="M4080 5135 c0 -24 33 -86 44 -82 6 2 10 15 8 28 -7 46 -52 94 -52 54z"/>
<path d="M4346 5089 c-32 -25 -50 -56 -37 -64 13 -7 81 53 81 71 0 19 -13 17
-44 -7z"/>
<path d="M3957 5054 c-14 -14 -7 -35 11 -32 9 2 17 10 17 17 0 16 -18 25 -28
15z"/>
<path d="M4760 5015 c0 -27 31 -128 47 -152 8 -12 34 -30 59 -40 l44 -18 0
-116 0 -116 -32 -7 c-38 -7 -88 -52 -88 -77 0 -16 3 -17 28 -3 29 15 51 17 76
8 29 -11 14 -148 -20 -185 -10 -11 -20 -32 -22 -45 -9 -73 -167 -152 -325
-161 -104 -7 -103 -4 -94 -154 l5 -99 -62 0 c-35 0 -77 5 -94 11 -17 6 -41 9
-54 7 -20 -3 -17 -7 21 -27 100 -53 179 -64 436 -62 199 1 221 4 275 35 125
71 224 166 199 191 -7 7 -14 5 -23 -7 -7 -10 -18 -18 -23 -18 -6 0 -16 -6 -22
-14 -6 -8 -22 -16 -34 -19 -12 -2 -30 -8 -40 -12 -16 -6 -18 -4 -17 16 3 38 1
49 -11 49 -6 0 -9 -6 -6 -14 8 -20 -17 -27 -38 -12 -17 12 -17 13 -1 19 10 4
15 11 11 16 -3 5 5 13 17 17 13 4 23 5 24 3 0 -2 9 2 18 10 9 8 14 21 11 29
-3 8 -1 20 3 26 5 6 14 25 20 41 9 26 11 27 11 8 1 -13 6 -23 12 -23 6 0 9 9
6 19 -3 11 2 29 10 41 12 17 13 24 3 30 -9 6 -8 13 4 32 9 14 16 35 16 49 0
13 2 39 6 57 4 19 2 43 -4 55 -6 12 -13 42 -16 67 -2 25 -14 110 -25 189 -12
80 -21 166 -21 192 l0 47 -40 6 c-22 3 -58 9 -80 12 -37 5 -72 34 -105 87 -5
9 -22 19 -37 23 -22 5 -28 3 -28 -11z"/>
<path d="M4372 4973 c2 -10 10 -18 18 -18 8 0 16 8 18 18 2 12 -3 17 -18 17
-15 0 -20 -5 -18 -17z"/>
<path d="M6530 4811 c0 -12 19 -25 58 -41 30 -12 35 -11 57 10 13 13 22 27 19
31 -7 12 -134 12 -134 0z"/>
<path d="M5706 4481 c-15 -17 -15 -19 0 -31 20 -17 48 -2 52 29 4 27 -28 29
-52 2z"/>
<path d="M4600 3125 c-7 -8 -30 -20 -51 -25 -40 -11 -50 -26 -25 -36 24 -9 95
16 106 37 18 33 -6 53 -30 24z"/>
<path d="M297 2723 c-10 -10 -8 -33 3 -33 5 0 14 9 20 20 8 15 8 20 -3 20 -8
0 -17 -3 -20 -7z"/>
<path d="M5285 2470 c3 -5 8 -10 11 -10 2 0 4 5 4 10 0 6 -5 10 -11 10 -5 0
-7 -4 -4 -10z"/>
<path d="M5699 2406 c-2 -3 -33 -6 -67 -8 -35 -1 -68 -8 -74 -15 -28 -34 -213
-37 -328 -5 -19 5 -42 11 -50 13 -10 3 -16 -5 -18 -21 -9 -75 298 -167 369
-111 14 10 41 23 62 29 34 10 113 78 109 95 -1 4 7 7 19 7 11 0 17 5 14 10 -6
10 -28 14 -36 6z"/>
<path d="M5400 2390 c0 -5 4 -10 9 -10 6 0 13 5 16 10 3 6 -1 10 -9 10 -9 0
-16 -4 -16 -10z"/>
<path d="M6680 1986 c-10 -25 -26 -46 -34 -46 -20 0 -31 -19 -18 -32 14 -14
74 14 101 48 27 34 24 68 -7 72 -18 3 -26 -5 -42 -42z"/>
<path d="M4844 1962 c-13 -9 -44 -54 -44 -64 0 -14 37 -9 50 7 7 8 19 15 27
15 9 0 13 8 11 22 -3 24 -25 34 -44 20z"/>
<path d="M4160 1663 c-1 -25 57 -153 69 -153 8 0 11 -7 8 -20 -4 -14 1 -24 16
-31 19 -11 19 -13 4 -24 -21 -15 -22 -25 -3 -25 8 0 14 -10 14 -22 1 -31 18
-117 30 -148 5 -14 8 -41 6 -59 -3 -29 -2 -32 11 -21 8 7 15 29 15 49 0 30 22
145 47 247 4 16 -17 41 -101 117 -104 95 -116 105 -116 90z"/>
<path d="M4462 1638 c-16 -16 -15 -48 1 -48 20 0 57 30 57 46 0 17 -41 19 -58
2z"/>
<path d="M2092 1243 c-11 -10 -23 -28 -27 -40 -5 -18 -1 -25 18 -32 14 -5 27
-15 29 -22 2 -7 9 -9 16 -5 14 9 10 108 -5 113 -5 2 -19 -4 -31 -14z"/>
<path d="M2317 1178 c-32 -11 -31 -28 1 -44 41 -20 43 -13 -36 -114 -13 -17
-29 -30 -36 -30 -7 0 -26 -14 -43 -30 -39 -38 -49 -27 -44 53 1 31 -1 57 -6
57 -9 0 -39 -98 -35 -113 4 -13 -22 -32 -43 -32 -34 0 -31 -41 6 -77 17 -18
39 -46 48 -62 31 -55 68 -67 184 -60 56 3 109 10 118 15 9 4 35 11 57 14 42 5
78 -11 140 -62 l27 -22 -27 -1 c-16 0 -28 -4 -28 -10 0 -5 5 -10 11 -10 5 0 7
-5 3 -12 -4 -6 -3 -8 4 -4 6 3 13 2 17 -3 3 -6 17 -3 34 7 16 9 27 20 24 25
-7 12 55 -2 80 -17 12 -7 17 -20 14 -38 -2 -19 2 -28 15 -31 13 -4 18 0 18 14
0 11 7 19 18 20 11 1 8 4 -8 9 -24 7 -24 7 10 14 46 8 113 1 118 -13 2 -6 16
-11 30 -11 l27 0 -25 -14 c-17 -8 -29 -10 -38 -3 -9 7 -17 6 -24 -1 -7 -7 -21
-12 -33 -12 -11 0 -35 -9 -54 -21 -18 -11 -39 -18 -46 -15 -8 3 -19 -2 -25
-10 -7 -8 -19 -14 -26 -14 -8 0 -14 -4 -14 -10 0 -5 11 -10 25 -10 31 0 31 -8
1 -53 -27 -39 -25 -47 11 -47 17 0 22 -4 17 -12 -5 -9 -2 -8 9 1 18 14 32 9
32 -12 0 -19 32 -20 67 -3 17 9 49 19 69 22 33 6 38 10 42 38 2 19 4 11 5 -22
1 -32 -2 -51 -8 -47 -5 3 -31 3 -57 -1 -39 -5 -51 -11 -61 -32 -14 -29 -15
-28 18 -36 14 -3 19 -3 13 0 -22 10 -15 37 7 31 11 -3 23 -1 26 4 7 13 51 11
60 -2 3 -6 1 -15 -6 -19 -8 -5 -9 -10 -2 -14 6 -3 14 -1 17 5 9 13 59 -37 69
-69 12 -37 45 -49 151 -56 55 -4 130 -9 167 -12 64 -6 67 -5 84 21 14 22 15
31 5 46 -9 16 -9 24 3 41 14 19 13 23 -2 34 -16 12 -15 14 6 29 12 9 22 20 22
26 0 16 -30 10 -37 -8 -10 -25 -53 -63 -72 -63 -14 1 -13 3 2 15 17 12 42 85
30 85 -2 0 -13 -5 -24 -11 -18 -9 -20 -8 -17 13 2 13 7 21 11 18 5 -3 14 6 21
19 11 19 14 21 19 7 4 -9 16 -16 28 -16 18 0 20 4 14 23 -16 54 -17 67 -4 67
8 0 19 -10 24 -22 6 -13 17 -23 25 -24 14 0 58 -10 90 -21 21 -6 -16 -27 -50
-27 -26 -1 -42 -33 -16 -33 8 0 13 4 10 9 -3 4 2 8 11 8 9 0 13 -4 10 -10 -4
-6 5 -10 20 -10 19 0 26 4 22 14 -3 8 1 17 9 20 17 7 50 -8 56 -24 2 -7 14 -7
36 1 18 6 42 9 54 6 21 -6 48 12 48 32 0 15 -17 14 -43 -4 -13 -8 -28 -11 -35
-6 -7 4 -31 6 -53 4 -30 -3 -39 -1 -39 11 0 9 4 16 10 16 5 0 7 7 4 15 -3 8
-16 13 -27 12 -17 -2 -21 3 -19 20 2 16 -4 23 -27 28 -20 4 -28 11 -25 20 4
10 12 11 30 5 19 -8 26 -6 31 6 3 9 1 25 -5 35 -10 16 -8 18 16 16 32 -3 42
-36 17 -60 -12 -12 -12 -17 -3 -24 15 -9 48 -5 64 8 6 5 14 6 18 2 11 -11 46
-14 46 -3 0 5 -7 13 -16 18 -24 13 -8 32 27 32 20 0 29 4 26 13 -2 6 3 18 12
25 9 8 10 11 3 7 -7 -4 -31 3 -53 14 -52 27 -61 26 -53 -4 5 -19 2 -25 -10
-25 -9 0 -16 8 -16 20 0 17 -5 19 -25 14 -22 -5 -25 -3 -22 16 2 12 -5 39 -15
58 -10 20 -18 44 -18 53 0 9 -7 22 -15 29 -11 10 -18 9 -30 -3 -8 -9 -39 -21
-69 -27 -45 -9 -59 -8 -87 5 -35 17 -59 13 -102 -17 -14 -11 -19 -10 -26 1 -6
9 -16 11 -27 6 -18 -6 -17 -8 4 -16 12 -4 22 -11 22 -13 0 -11 -83 -47 -96
-42 -8 3 -14 1 -14 -4 0 -6 -9 -10 -20 -10 -10 0 -23 -7 -28 -16 -8 -15 -11
-15 -35 1 -26 16 -26 16 -21 -9 4 -25 -16 -50 -24 -28 -2 7 -9 9 -14 6 -6 -4
-8 -3 -5 3 4 6 -1 36 -10 67 -14 48 -23 62 -59 87 -24 16 -63 37 -86 45 -24 8
-57 29 -74 45 -27 26 -35 29 -52 20 -30 -16 -118 -13 -154 5 -41 21 -56 5 -23
-26 28 -26 33 -45 10 -36 -8 3 -18 -2 -23 -10 -10 -19 -39 -9 -47 17 -4 10
-13 19 -21 19 -19 0 -18 6 7 31 16 16 18 23 8 35 -6 8 -18 14 -25 14 -8 0 -19
11 -24 24 -12 32 -30 42 -30 17 0 -27 -15 -34 -30 -16 -8 9 -21 13 -32 9 -31
-10 -49 14 -42 55 3 20 12 41 19 46 15 12 37 84 29 97 -7 11 -42 9 -77 -4z
m708 -518 c-3 -5 -10 -10 -16 -10 -5 0 -9 5 -9 10 0 6 7 10 16 10 8 0 12 -4 9
-10z m28 -75 c-3 -8 -9 -15 -14 -15 -10 0 -12 24 -3 33 11 11 24 -3 17 -18z
m130 -35 c6 -24 -2 -31 -31 -24 -25 7 -36 32 -21 50 14 17 44 3 52 -26z m-215
-20 c6 0 12 4 14 8 2 5 15 12 31 16 27 6 27 6 27 -44 0 -33 -4 -49 -11 -45 -5
4 -8 12 -6 18 7 21 -24 36 -45 23 -15 -9 -21 -8 -28 4 -7 12 -12 12 -22 2 -6
-6 -8 -12 -3 -12 4 0 0 -9 -10 -20 -10 -11 -24 -20 -32 -20 -7 0 -13 9 -13 20
0 12 -7 20 -16 20 -27 0 2 28 37 35 18 4 29 13 29 23 1 14 4 13 19 -5 11 -13
24 -23 29 -23z m174 -37 c-2 -12 -7 -21 -11 -19 -4 3 -13 1 -21 -5 -10 -6 -11
-9 -2 -9 6 0 12 -5 12 -11 0 -5 -4 -8 -9 -5 -4 3 -6 -7 -4 -22 4 -21 2 -24 -6
-12 -12 17 -14 53 -5 87 9 32 52 28 46 -4z m192 6 c27 1 53 4 57 7 5 3 9 1 9
-4 0 -6 -8 -13 -17 -17 -17 -8 -27 -10 -65 -13 -10 -1 -18 -7 -18 -12 0 -6 13
-8 30 -5 34 6 37 -1 14 -33 -17 -25 -49 -31 -40 -7 4 10 -1 15 -15 15 -20 0
-21 1 -5 25 20 31 20 35 -1 35 -10 0 -25 5 -33 11 -11 8 -9 9 10 3 14 -4 47
-6 74 -5z m-499 -49 c-4 -6 5 -10 19 -10 14 0 26 -5 26 -11 0 -5 4 -7 10 -4 6
3 7 -1 4 -9 -4 -9 -18 -16 -34 -16 -22 0 -29 5 -32 25 -3 13 -3 27 0 30 9 9
14 6 7 -5z m365 -30 c0 -15 -28 -19 -39 -6 -6 7 -8 15 -5 18 7 8 44 -2 44 -12z
m-150 -16 c0 -14 -4 -23 -9 -20 -5 3 -7 15 -4 26 7 28 13 25 13 -6z m238 -17
c2 -12 -1 -15 -12 -11 -19 7 -22 38 -3 32 6 -3 13 -12 15 -21z m-168 -17 c0
-5 -4 -10 -10 -10 -5 0 -10 5 -10 10 0 6 5 10 10 10 6 0 10 -4 10 -10z"/>
<path d="M6078 1129 c-19 -10 -25 -59 -9 -59 11 0 51 48 51 61 0 12 -21 11
-42 -2z"/>
<path d="M6222 1127 c-9 -11 -10 -17 -2 -22 15 -9 23 -1 18 21 -3 15 -4 16
-16 1z"/>
<path d="M5948 1053 c-34 -39 -42 -73 -17 -73 17 0 69 53 69 71 0 24 -31 25
-52 2z"/>
<path d="M5457 1043 c-2 -5 -7 -20 -11 -35 -4 -19 -17 -32 -41 -42 -44 -19
-44 -33 -1 -51 43 -18 50 -29 36 -55 -8 -15 -17 -19 -31 -15 -13 4 -26 -2 -42
-21 -32 -36 -51 -24 -44 27 3 23 1 37 -4 33 -15 -9 -39 -74 -39 -106 0 -27 -2
-29 -37 -26 l-38 3 -2 -62 c-2 -88 -12 -84 196 -84 166 0 170 2 170 102 0 57
-3 71 -18 79 -14 7 -23 5 -36 -10 -38 -42 -64 -17 -44 43 15 46 44 81 76 91
13 4 20 13 18 24 -2 9 -4 22 -4 29 -1 6 -11 15 -23 19 -13 4 -35 20 -50 36
-14 16 -28 25 -31 21z"/>
<path d="M2191 984 c0 -11 3 -14 6 -6 3 7 2 16 -1 19 -3 4 -6 -2 -5 -13z"/>
<path d="M5968 953 c-14 -24 -14 -29 5 -64 l20 -38 -28 -90 c-27 -87 -46 -110
-59 -75 -5 13 -9 14 -20 5 -10 -8 -16 -9 -21 -1 -14 23 -25 7 -25 -39 0 -36
-4 -50 -17 -55 -9 -4 -21 -2 -27 4 -16 16 -36 12 -29 -6 3 -8 6 -36 7 -61 1
-44 2 -46 46 -63 85 -33 380 -21 411 16 7 9 7 19 -1 34 -9 16 -8 25 1 37 11
13 10 17 -5 29 -11 7 -23 11 -27 8 -13 -8 -11 1 8 41 23 49 6 65 -33 32 -43
-36 -94 -40 -94 -7 0 11 -9 29 -20 40 l-21 21 -19 -23 c-17 -21 -19 -22 -26
-5 -12 33 5 104 36 151 33 49 39 53 57 35 6 -6 26 -9 44 -7 30 3 34 7 37 33 2
17 11 36 20 43 12 9 13 15 5 23 -14 14 -32 4 -43 -26 -9 -23 -65 -41 -76 -23
-3 4 1 8 8 8 8 1 6 6 -5 15 -11 7 -25 11 -33 8 -8 -3 -25 2 -37 10 -22 14 -24
14 -39 -10z"/>
<path d="M1487 964 c-9 -9 -9 -48 -1 -57 13 -13 45 14 42 36 -3 22 -28 34 -41
21z"/>
<path d="M5863 928 c2 -7 14 -13 27 -13 13 0 25 6 28 13 2 8 -7 12 -28 12 -21
0 -30 -4 -27 -12z"/>
<path d="M4100 836 c0 -14 5 -26 10 -26 6 0 10 9 10 19 0 11 -4 23 -10 26 -6
4 -10 -5 -10 -19z"/>
<path d="M6503 843 c-7 -3 -13 -13 -13 -24 0 -21 25 -16 34 6 6 17 -4 24 -21
18z"/>
<path d="M1517 807 c-15 -40 -18 -123 -4 -141 14 -20 64 -28 113 -18 24 4 25
7 20 46 -8 58 -8 59 -1 83 9 29 -25 49 -55 31 -16 -10 -24 -10 -40 0 -25 15
-27 15 -33 -1z"/>
<path d="M1243 780 c-28 -12 -30 -40 -3 -63 11 -9 21 -29 21 -44 2 -46 11 -78
31 -120 18 -36 1 -39 -29 -7 -38 40 -42 13 -8 -48 34 -61 43 -65 175 -74 98
-7 118 2 124 54 2 18 12 49 22 67 20 38 13 55 -16 37 -27 -16 -40 -15 -40 4 0
12 -6 15 -24 10 -20 -5 -23 -3 -19 13 5 20 -18 42 -25 23 -6 -18 -19 -14 -25
8 -6 23 -46 20 -62 -6 -5 -9 -17 -26 -26 -37 -16 -20 -17 -20 -43 20 -28 42
-31 98 -6 129 14 16 6 44 -12 43 -7 0 -23 -4 -35 -9z"/>
<path d="M6271 739 c-18 -29 -19 -36 -7 -48 32 -32 63 26 37 68 -7 11 -14 7
-30 -20z"/>
<path d="M3185 741 c-3 -5 -1 -12 5 -16 5 -3 10 1 10 9 0 18 -6 21 -15 7z"/>
<path d="M3881 731 c-11 -7 -10 -11 7 -20 21 -11 52 -6 52 9 0 8 -24 20 -38
20 -4 0 -13 -4 -21 -9z"/>
<path d="M3065 720 c-3 -5 1 -10 10 -10 9 0 13 5 10 10 -3 6 -8 10 -10 10 -2
0 -7 -4 -10 -10z"/>
<path d="M2141 696 c-10 -12 -6 -26 10 -26 11 0 19 29 10 35 -5 2 -14 -1 -20
-9z"/>
<path d="M2300 700 c0 -5 5 -10 11 -10 5 0 7 5 4 10 -3 6 -8 10 -11 10 -2 0
-4 -4 -4 -10z"/>
<path d="M2203 686 c3 -7 1 -18 -5 -24 -7 -7 -2 -17 15 -32 30 -26 34 -27 58
-9 18 12 17 15 -18 46 -37 34 -59 43 -50 19z"/>
<path d="M4279 644 c-35 -37 -73 -56 -87 -42 -8 8 -15 8 -26 -1 -8 -7 -25 -9
-40 -5 -14 3 -42 3 -60 0 l-35 -7 17 -30 c12 -21 30 -34 62 -43 25 -8 44 -19
43 -25 -4 -16 23 -13 37 4 7 8 20 15 30 15 10 0 23 7 30 15 7 8 18 15 25 15
20 0 54 66 51 97 -4 36 -17 39 -47 7z"/>
<path d="M2300 625 c0 -15 4 -24 10 -20 6 3 10 12 10 20 0 8 -4 17 -10 20 -6
4 -10 -5 -10 -20z"/>
<path d="M4695 613 c-27 -30 -37 -35 -47 -25 -9 9 -17 7 -34 -9 -13 -13 -24
-17 -28 -10 -5 7 -15 7 -32 1 -21 -9 -26 -6 -35 17 -7 19 -13 23 -21 15 -7 -7
-6 -23 4 -54 7 -24 12 -54 10 -68 -3 -23 -7 -25 -40 -22 -23 2 -45 -3 -57 -12
-19 -15 -19 -17 -3 -29 10 -8 14 -17 10 -22 -4 -4 2 -5 13 -2 11 3 39 9 63 12
36 6 42 10 42 31 0 16 6 24 17 24 9 0 14 -3 10 -6 -6 -6 16 -34 28 -34 3 0 3
17 0 38 -5 27 -4 33 4 22 14 -21 33 -19 53 5 14 18 20 19 50 8 28 -10 30 -10
15 1 -16 13 -16 14 1 37 29 39 40 72 31 97 -5 12 -11 22 -14 22 -3 0 -21 -17
-40 -37z m-135 -123 c0 -5 -4 -10 -9 -10 -6 0 -13 5 -16 10 -3 6 1 10 9 10 9
0 16 -4 16 -10z"/>
<path d="M4056 624 c-4 -10 -1 -14 6 -12 15 5 23 28 10 28 -5 0 -13 -7 -16
-16z"/>
<path d="M2488 600 c11 -20 24 -30 36 -28 31 5 29 21 -5 41 -43 24 -51 21 -31
-13z"/>
<path d="M2717 615 c-5 -10 0 -15 14 -15 12 0 19 5 17 12 -6 18 -25 20 -31 3z"/>
<path d="M3945 621 c-3 -5 -1 -12 5 -16 5 -3 10 1 10 9 0 18 -6 21 -15 7z"/>
<path d="M4900 620 c0 -5 5 -10 11 -10 5 0 7 -5 3 -12 -4 -7 -3 -8 5 -4 9 6 9
11 0 22 -14 17 -19 18 -19 4z"/>
<path d="M5131 572 c-5 -10 -13 -42 -17 -70 -7 -55 -8 -54 49 -66 15 -4 26 -2
25 3 -2 5 1 9 5 9 5 0 22 13 38 28 l29 28 -36 16 c-20 9 -41 27 -47 40 -16 31
-33 36 -46 12z"/>
<path d="M2300 570 c0 -5 7 -10 16 -10 8 0 12 5 9 10 -3 6 -10 10 -16 10 -5 0
-9 -4 -9 -10z"/>
<path d="M3853 567 c0 -7 -3 -19 -7 -27 -8 -20 5 -39 29 -41 39 -4 66 1 60 11
-3 5 -19 7 -35 3 -33 -6 -51 17 -31 41 9 10 8 15 -2 19 -8 3 -14 0 -14 -6z"/>
<path d="M4840 558 c-6 -18 -4 -27 10 -39 19 -16 19 -18 -10 -47 -23 -25 -26
-33 -16 -41 10 -9 15 -7 19 9 3 12 13 20 27 20 19 0 20 -2 10 -15 -10 -12 -9
-16 3 -21 9 -3 21 -3 27 1 14 9 13 32 -2 37 -8 3 -5 16 10 43 16 26 20 41 13
48 -8 8 -11 4 -11 -11 0 -15 -6 -22 -19 -22 -19 0 -36 25 -32 48 3 21 -19 13
-29 -10z"/>
<path d="M2556 555 c-11 -29 -7 -55 9 -55 10 0 15 -10 15 -30 0 -25 -4 -30
-25 -30 -14 0 -25 -4 -25 -9 0 -5 7 -8 16 -7 11 0 18 -7 19 -21 1 -19 -2 -21
-27 -16 -22 4 -35 0 -53 -17 -30 -28 -24 -40 19 -40 26 0 33 4 32 18 -1 12 8
18 32 20 17 2 32 8 32 14 0 5 7 7 16 4 8 -3 12 -2 9 4 -5 9 15 15 37 11 4 0 5
6 2 14 -4 9 0 15 9 15 9 0 23 14 31 32 18 36 20 52 6 43 -5 -3 -10 1 -10 9 0
9 -6 16 -14 16 -8 0 -21 7 -29 15 -8 8 -33 17 -55 21 -31 5 -40 3 -46 -11z"/>
<path d="M2400 540 c0 -5 5 -10 10 -10 6 0 10 5 10 10 0 6 -4 10 -10 10 -5 0
-10 -4 -10 -10z"/>
<path d="M3735 520 c-4 -6 -3 -16 3 -22 6 -6 12 -6 17 2 4 6 3 16 -3 22 -6 6
-12 6 -17 -2z"/>
<path d="M3975 510 c-4 -6 -11 -7 -17 -4 -7 4 -8 2 -4 -5 6 -9 11 -9 22 0 14
11 18 19 10 19 -3 0 -8 -5 -11 -10z"/>
<path d="M4020 501 l-25 -7 23 -6 c18 -5 22 -12 18 -25 -5 -17 -2 -18 29 -15
19 2 35 8 35 12 0 5 3 15 6 24 4 10 1 16 -9 16 -8 0 -14 -7 -13 -16 0 -9 -5
-19 -12 -22 -9 -3 -13 3 -10 18 3 26 -6 31 -42 21z"/>
<path d="M4270 500 c8 -5 20 -10 25 -10 6 0 3 5 -5 10 -8 5 -19 10 -25 10 -5
0 -3 -5 5 -10z"/>
<path d="M4800 490 c0 -5 5 -10 10 -10 6 0 10 5 10 10 0 6 -4 10 -10 10 -5 0
-10 -4 -10 -10z"/>
<path d="M4210 470 c18 -12 30 -13 30 -2 0 4 -10 9 -22 9 -18 2 -20 0 -8 -7z"/>
<path d="M4700 470 c0 -12 28 -25 36 -17 3 3 -4 10 -15 17 -15 7 -21 7 -21 0z"/>
<path d="M4785 460 c-3 -5 -1 -10 4 -10 6 0 11 5 11 10 0 6 -2 10 -4 10 -3 0
-8 -4 -11 -10z"/>
<path d="M1766 445 c-11 -8 -29 -15 -40 -15 -26 0 -53 -16 -43 -26 4 -4 24
-10 44 -13 26 -4 41 -13 48 -29 11 -25 25 -28 43 -10 9 9 15 9 24 0 12 -12 48
-17 48 -6 0 21 -25 100 -34 106 -18 13 -70 8 -90 -7z"/>
<path d="M2420 450 c0 -5 -6 -10 -14 -10 -20 0 -27 -48 -8 -55 23 -9 52 4 45
21 -3 7 0 14 6 14 8 0 7 6 -1 20 -14 21 -28 27 -28 10z"/>
<path d="M4325 439 c-9 -27 9 -45 54 -54 23 -5 31 -4 27 4 -4 6 -16 11 -27 11
-14 0 -19 7 -19 30 0 35 -25 42 -35 9z"/>
<path d="M2302 443 c-10 -4 -8 -9 7 -20 12 -8 19 -18 16 -23 -9 -14 16 -23 28
-11 8 8 7 11 -3 11 -11 0 -11 3 -2 12 29 29 -2 49 -46 31z"/>
<path d="M2485 420 c3 -5 8 -10 11 -10 2 0 4 5 4 10 0 6 -5 10 -11 10 -5 0 -7
-4 -4 -10z"/>
<path d="M3914 415 c-4 -10 -1 -21 7 -26 23 -14 31 -10 27 13 -4 27 -26 35
-34 13z"/>
<path d="M4141 411 c-17 -31 -13 -41 14 -41 15 0 25 -6 25 -14 0 -23 15 -27
27 -7 9 14 5 23 -22 50 -32 31 -34 32 -44 12z"/>
<path d="M4730 422 c-20 -7 -9 -22 13 -18 12 3 30 5 40 5 9 1 17 4 17 9 0 7
-51 10 -70 4z"/>
<path d="M4945 388 c-12 -47 -11 -52 20 -91 l28 -35 24 28 c27 32 27 36 11 55
-26 29 -34 40 -41 58 -10 28 -34 20 -42 -15z"/>
<path d="M5291 397 c-8 -10 -7 -19 3 -33 8 -10 18 -16 22 -12 4 4 13 3 20 -3
10 -8 9 -15 -2 -37 -8 -15 -14 -38 -14 -52 0 -32 -8 -42 -42 -57 -23 -10 -28
-10 -28 1 0 8 -8 24 -19 37 -17 21 -21 22 -37 9 -10 -8 -15 -10 -11 -4 8 14
-11 74 -23 74 -5 0 -15 -21 -22 -46 -7 -25 -16 -45 -20 -45 -4 0 -19 -10 -33
-23 -20 -19 -24 -29 -19 -55 l7 -32 -32 18 c-32 19 -39 37 -20 49 8 5 6 10 -5
16 -9 5 -16 16 -16 24 0 8 -4 12 -10 9 -5 -3 -10 -20 -10 -36 0 -19 -6 -32
-17 -36 -40 -14 -42 -22 -22 -78 10 -30 19 -61 19 -70 0 -13 29 -15 213 -15
198 1 215 2 257 23 44 22 45 23 51 82 4 44 2 63 -8 71 -7 6 -13 16 -13 23 0
15 -19 14 -54 -4 -24 -13 -31 -13 -37 -3 -10 16 0 129 13 144 11 14 -40 74
-63 74 -9 0 -22 -6 -28 -13z"/>
<path d="M4648 393 c7 -3 16 -2 19 1 4 3 -2 6 -13 5 -11 0 -14 -3 -6 -6z"/>
<path d="M4754 388 c-10 -16 23 -19 50 -4 l28 14 -37 -1 c-20 -1 -39 -5 -41
-9z"/>
<path d="M2633 355 c-10 -23 -9 -25 10 -25 12 0 30 12 40 25 18 25 18 25 -10
25 -20 0 -31 -7 -40 -25z"/>
<path d="M3786 367 c3 -10 9 -15 12 -12 3 3 0 11 -7 18 -10 9 -11 8 -5 -6z"/>
<path d="M4007 369 c7 -7 15 -10 18 -7 3 3 -2 9 -12 12 -14 6 -15 5 -6 -5z"/>
<path d="M3615 356 c-19 -15 -18 -15 15 -16 19 0 42 5 50 10 13 8 13 10 -2 10
-9 0 -22 2 -30 5 -7 3 -22 -1 -33 -9z"/>
<path d="M4418 363 c7 -3 16 -2 19 1 4 3 -2 6 -13 5 -11 0 -14 -3 -6 -6z"/>
<path d="M4480 360 c0 -13 11 -13 30 0 12 8 11 10 -7 10 -13 0 -23 -4 -23 -10z"/>
<path d="M2398 353 c7 -3 16 -2 19 1 4 3 -2 6 -13 5 -11 0 -14 -3 -6 -6z"/>
<path d="M3708 353 c7 -3 16 -2 19 1 4 3 -2 6 -13 5 -11 0 -14 -3 -6 -6z"/>
<path d="M3740 348 c0 -11 28 -10 35 1 3 6 -4 9 -15 8 -11 -1 -20 -5 -20 -9z"/>
<path d="M2568 333 c6 -2 18 -2 25 0 6 3 1 5 -13 5 -14 0 -19 -2 -12 -5z"/>
<path d="M2787 321 c-17 -18 -17 -19 7 -23 32 -6 51 5 43 26 -8 21 -27 19 -50
-3z"/>
<path d="M4495 330 c3 -5 13 -10 21 -10 8 0 14 5 14 10 0 6 -9 10 -21 10 -11
0 -17 -4 -14 -10z"/>
<path d="M1757 313 c-4 -3 -7 -11 -7 -17 0 -6 5 -5 12 2 6 6 9 14 7 17 -3 3
-9 2 -12 -2z"/>
<path d="M1598 269 c-10 -17 -18 -37 -18 -46 0 -20 -28 -47 -51 -48 -11 -1
-20 -4 -21 -6 -2 -2 -8 -13 -14 -24 -15 -27 -36 -25 -51 5 -21 41 -37 30 -45
-30 -5 -40 -12 -59 -27 -69 -12 -7 -21 -21 -21 -31 0 -17 17 -18 225 -19 124
-1 225 0 225 3 0 3 -5 17 -11 33 -6 15 -12 48 -12 73 -2 38 -5 45 -24 48 -14
2 -26 15 -33 35 -8 22 -14 27 -17 17 -19 -52 -47 -42 -58 20 -4 21 -12 45 -18
54 -11 14 -14 12 -29 -15z"/>
<path d="M6039 240 c-1 -5 -2 -15 -3 -22 -2 -22 -24 -19 -32 4 -7 22 -7 22
-15 3 -13 -34 -10 -57 10 -62 18 -5 37 -63 20 -63 -4 0 -11 -9 -14 -20 -3 -11
-12 -20 -19 -20 -8 0 -19 -7 -26 -15 -12 -14 -15 -14 -31 1 -24 21 -32 14 -23
-20 6 -25 8 -26 84 -26 76 0 78 1 85 27 4 17 2 29 -4 31 -21 7 -31 40 -22 66
8 19 20 27 53 33 40 8 43 11 46 44 3 35 2 36 -35 42 -54 9 -73 8 -74 -3z"/>
<path d="M4783 149 c14 -8 22 -8 30 0 8 8 3 11 -18 11 -26 -1 -28 -2 -12 -11z"/>
<path d="M3892 85 c-14 -31 -15 -45 -3 -45 8 0 24 60 18 67 -2 2 -9 -8 -15
-22z"/>
</g>
</svg>
